<?xml version="1.0" standalone="no"?>
<!DOCTYPE svg PUBLIC "-//W3C//DTD SVG 20010904//EN"
 "http://www.w3.org/TR/2001/REC-SVG-20010904/DTD/svg10.dtd">
<svg version="1.0" xmlns="http://www.w3.org/2000/svg"
 width="900.000000pt" height="900.000000pt" viewBox="0 0 900.000000 900.000000"
 preserveAspectRatio="xMidYMid meet">

<g transform="translate(0.000000,900.000000) scale(0.100000,-0.100000)"
fill="#000000" stroke="none">
<path d="M4064 8975 c-6 -23 5 -190 25 -400 11 -113 2 -139 -51 -143 -37 -3
-38 -2 -49 43 -14 57 -42 72 -94 50 -31 -12 -35 -18 -35 -50 0 -53 35 -114 75
-131 40 -16 134 -18 187 -4 22 7 50 26 69 48 l31 37 -6 150 c-5 138 -19 313
-32 393 -5 32 -6 32 -59 32 -50 0 -55 -2 -61 -25z"/>
<path d="M4463 8893 c-45 -221 -64 -308 -84 -387 -12 -44 -23 -90 -26 -102 -7
-29 22 -54 62 -54 38 0 58 22 70 77 9 43 48 73 94 73 49 0 66 -15 88 -75 24
-64 60 -87 100 -64 33 18 35 41 9 139 -9 36 -27 108 -40 160 -14 52 -34 131
-46 175 -12 44 -24 99 -27 123 l-5 42 -87 0 -87 0 -21 -107z m124 -105 c17
-22 45 -146 38 -167 -12 -39 -88 -40 -100 -1 -3 10 -1 49 5 86 14 85 33 113
57 82z"/>
<path d="M5343 8929 c-24 -12 -28 -20 -48 -89 -22 -74 -134 -392 -150 -427
-22 -46 -19 -80 9 -99 40 -26 67 -15 95 40 14 27 38 58 52 69 22 16 31 17 67
8 48 -13 72 -42 72 -87 0 -40 27 -64 72 -64 52 0 64 19 50 83 -6 29 -18 124
-27 212 -9 88 -20 184 -25 214 -6 30 -10 66 -10 81 0 15 -9 35 -20 45 -24 21
-106 30 -137 14z m65 -206 c17 -33 23 -158 9 -177 -16 -22 -75 -18 -91 6 -14
23 41 188 64 188 5 0 13 -8 18 -17z"/>
<path d="M3449 8903 c-45 -7 -58 -32 -64 -119 -6 -78 -13 -156 -37 -386 -14
-139 -7 -168 42 -168 42 0 70 31 70 79 0 57 25 83 88 89 58 5 92 -14 92 -50 0
-48 73 -83 121 -58 19 11 26 54 10 64 -4 3 -14 27 -21 53 -7 27 -19 58 -26 69
-11 18 -93 227 -140 359 -25 67 -52 81 -135 68z m98 -269 c36 -65 41 -105 17
-128 -17 -18 -51 -21 -74 -6 -27 17 -14 206 13 198 7 -3 26 -31 44 -64z"/>
<path d="M5915 8889 c-42 -6 -57 -15 -90 -52 -25 -28 -45 -61 -53 -93 -36
-138 -43 -179 -49 -292 l-6 -122 43 -40 c52 -48 86 -59 205 -67 125 -8 132 -2
156 143 11 60 21 116 24 125 12 37 -63 78 -143 79 -26 0 -35 -5 -42 -25 -11
-28 -1 -64 24 -84 22 -18 20 -59 -4 -99 -25 -41 -42 -48 -81 -32 -48 20 -62
49 -54 117 12 96 55 286 71 311 40 60 105 51 124 -18 19 -70 67 -98 121 -70
15 8 19 21 19 59 0 42 -5 54 -41 94 -52 60 -126 81 -224 66z"/>
<path d="M2880 8819 c-63 -11 -149 -37 -167 -52 -16 -12 -17 -69 -2 -84 5 -5
19 -52 30 -104 10 -52 28 -119 38 -149 10 -30 22 -75 26 -100 23 -152 67 -206
135 -170 40 21 41 42 9 139 -17 50 -29 98 -26 106 3 7 18 21 32 31 21 13 31
15 50 6 35 -16 73 -80 85 -142 13 -69 36 -91 84 -80 61 13 66 25 46 101 -5 22
-14 56 -20 77 -5 20 -30 60 -55 89 -25 28 -45 57 -45 63 0 7 9 27 20 46 l21
33 -21 63 c-28 83 -45 107 -85 124 -38 15 -73 16 -155 3z m75 -105 c20 -8 45
-67 45 -106 0 -33 -39 -78 -68 -78 -10 0 -26 8 -34 18 -17 20 -48 100 -48 124
0 38 56 60 105 42z"/>
<path d="M6399 8774 c-14 -17 -44 -109 -80 -249 -12 -44 -27 -92 -35 -106 -7
-15 -20 -55 -28 -90 -7 -35 -20 -78 -27 -96 -11 -28 -11 -34 5 -52 26 -28 72
-36 100 -17 18 11 28 33 40 90 10 41 26 86 37 100 33 42 86 31 109 -23 10 -26
9 -39 -10 -95 -30 -91 -25 -126 22 -151 38 -20 38 -20 56 0 19 20 72 177 72
211 0 11 -9 30 -20 44 -11 14 -20 28 -20 32 0 4 22 30 49 57 52 52 71 96 71
164 0 85 -50 124 -218 171 -107 31 -106 31 -123 10z m171 -131 c14 -9 28 -22
32 -27 16 -23 7 -65 -22 -104 -34 -48 -71 -55 -111 -23 -22 18 -23 22 -11 53
8 18 18 49 24 68 16 53 43 64 88 33z"/>
<path d="M2311 8655 l-54 -25 6 -83 c7 -105 25 -283 37 -369 6 -37 10 -89 10
-115 0 -57 12 -73 55 -73 49 0 69 29 62 89 -7 59 3 75 61 95 54 19 80 10 123
-43 36 -45 68 -53 107 -25 29 20 28 43 -3 85 -33 45 -88 130 -165 259 -95 159
-129 209 -150 220 -25 14 -28 13 -89 -15z m130 -227 c7 -17 22 -42 34 -57 29
-34 34 -52 23 -74 -11 -21 -52 -39 -72 -31 -20 8 -36 49 -43 115 -9 87 28 118
58 47z"/>
<path d="M7017 8508 c-29 -40 -78 -108 -108 -151 -30 -43 -67 -96 -84 -118
-129 -167 -130 -169 -104 -203 35 -45 91 -32 129 29 18 30 27 35 58 35 24 0
52 -10 76 -26 40 -27 43 -43 21 -111 -14 -44 74 -95 103 -60 12 15 24 69 42
192 6 44 20 123 30 175 42 219 43 227 27 251 -24 33 -68 59 -104 59 -28 0 -38
-9 -86 -72z m69 -162 c6 -27 -31 -156 -49 -168 -24 -15 -57 -8 -72 16 -18 27
-13 45 29 98 12 15 29 38 39 52 22 32 45 33 53 2z"/>
<path d="M1857 8470 l-26 -31 20 -51 c11 -28 29 -64 40 -79 42 -59 12 -129
-56 -129 -34 0 -35 2 -85 104 -30 64 -57 107 -69 111 -38 12 -91 -24 -91 -62
0 -13 16 -59 36 -101 41 -86 94 -201 129 -277 88 -192 92 -197 149 -170 51 24
61 56 31 100 -14 19 -28 48 -31 63 -4 15 -17 42 -30 61 -24 36 -22 56 11 83
50 43 109 12 136 -70 7 -20 25 -61 41 -89 25 -44 35 -53 58 -53 33 0 80 44 80
74 0 11 -14 41 -30 65 -17 24 -30 51 -30 59 0 8 -11 35 -24 61 -14 25 -40 80
-59 121 -102 221 -110 235 -143 238 -25 2 -37 -3 -57 -28z"/>
<path d="M7516 8288 c-61 -40 -99 -106 -92 -158 5 -40 30 -98 81 -184 42 -70
44 -104 9 -145 -29 -34 -51 -38 -94 -16 -35 18 -43 40 -30 84 8 30 6 36 -20
62 -30 30 -70 38 -88 17 -22 -28 -34 -98 -22 -134 20 -60 106 -123 193 -143
51 -11 60 -10 105 9 38 16 59 34 87 76 35 50 37 58 32 105 -6 47 -17 71 -86
177 -13 20 -26 56 -29 79 -4 35 0 46 21 67 29 29 62 33 92 10 16 -12 20 -27
20 -77 0 -61 1 -62 34 -79 45 -22 63 -12 89 51 20 45 20 52 8 83 -29 68 -125
131 -220 144 -35 5 -48 1 -90 -28z"/>
<path d="M1191 8121 c-51 -44 -51 -36 4 -186 21 -55 45 -127 54 -160 10 -33
25 -74 34 -92 9 -18 23 -58 31 -90 23 -99 54 -130 101 -99 42 28 48 51 25 96
-12 23 -18 50 -15 60 7 21 88 70 116 70 11 0 36 -18 58 -40 21 -22 48 -40 58
-40 28 0 73 37 73 60 0 10 -95 114 -218 239 -248 251 -244 249 -321 182z m212
-220 c60 -63 67 -83 40 -113 -34 -37 -60 -24 -98 52 -65 129 -36 160 58 61z"/>
<path d="M8029 8043 c-23 -26 -184 -236 -219 -287 -8 -12 -35 -48 -60 -80 -77
-100 -74 -94 -62 -121 6 -13 26 -32 44 -41 18 -9 47 -28 63 -41 106 -86 147
-102 175 -68 20 24 7 47 -55 95 -78 61 -81 80 -20 148 26 29 55 52 64 52 10 0
39 -16 64 -35 53 -41 100 -47 117 -15 15 28 -1 54 -53 87 -23 14 -45 31 -49
37 -17 25 -6 63 30 104 43 49 73 54 111 18 57 -54 111 -64 131 -25 14 25 5 40
-48 77 -26 18 -75 53 -109 77 -35 25 -71 45 -81 45 -10 0 -30 -12 -43 -27z"/>
<path d="M4215 8020 c-71 -4 -168 -12 -215 -18 -47 -6 -128 -14 -180 -17 -52
-4 -151 -17 -220 -30 -69 -13 -154 -26 -190 -30 -36 -4 -105 -17 -155 -30 -49
-13 -119 -29 -155 -35 -36 -6 -94 -20 -130 -30 -36 -11 -110 -33 -165 -49 -55
-17 -116 -34 -135 -40 -19 -5 -80 -26 -135 -46 -55 -21 -134 -50 -176 -65 -41
-15 -89 -34 -105 -43 -16 -9 -81 -39 -144 -67 -101 -45 -195 -94 -373 -192
-133 -74 -330 -216 -492 -354 -188 -160 -322 -307 -435 -474 -24 -36 -53 -78
-64 -94 -29 -44 -135 -260 -151 -309 -7 -23 -20 -61 -29 -83 -8 -23 -29 -111
-46 -195 -30 -146 -32 -163 -27 -324 4 -140 10 -195 35 -313 17 -79 35 -149
40 -155 6 -7 17 -35 25 -64 17 -57 117 -263 160 -328 170 -260 367 -469 648
-688 48 -37 91 -67 96 -67 5 0 24 -13 43 -30 19 -16 39 -29 44 -30 4 0 25 -13
45 -29 29 -23 136 -84 326 -188 11 -6 49 -24 85 -41 36 -16 99 -45 140 -65 41
-19 113 -49 160 -67 47 -18 112 -43 145 -56 57 -22 170 -58 385 -123 150 -45
560 -136 665 -146 33 -4 114 -15 180 -25 427 -68 1290 -69 1690 -4 50 8 142
21 205 29 63 8 153 23 200 34 47 11 119 27 160 36 216 44 527 137 770 230 52
20 111 43 132 51 20 7 87 38 150 68 62 29 129 61 148 70 19 9 62 31 95 50 33
19 78 44 100 56 67 35 186 112 365 237 14 10 77 61 140 114 418 352 654 714
758 1164 23 100 23 531 0 625 -97 400 -271 695 -594 1011 -66 63 -141 133
-169 154 -27 21 -59 47 -70 57 -53 47 -93 78 -102 78 -4 0 -24 13 -43 29 -19
15 -48 36 -65 45 -16 9 -55 35 -85 57 -30 22 -73 48 -95 59 -22 11 -67 35
-100 54 -116 66 -445 223 -505 241 -14 4 -61 21 -105 37 -44 17 -107 41 -140
54 -33 12 -85 28 -115 35 -30 6 -66 17 -80 24 -14 7 -47 17 -75 24 -27 6 -79
21 -115 31 -36 11 -110 29 -165 39 -55 11 -129 27 -165 35 -122 29 -385 68
-545 82 -88 7 -188 18 -222 24 -79 13 -687 21 -858 10z m458 -105 c15 -8 39
-22 54 -30 42 -22 131 -114 174 -177 119 -179 227 -500 288 -854 26 -149 39
-184 69 -184 8 0 51 15 96 33 45 19 106 44 136 56 30 13 81 31 113 41 32 10
81 27 110 38 181 69 453 131 609 139 238 12 369 -42 437 -179 39 -77 40 -127
5 -231 -54 -164 -184 -340 -428 -583 -128 -127 -363 -336 -458 -407 -39 -28
-51 -69 -25 -80 55 -22 465 -384 588 -518 112 -123 116 -128 177 -211 108
-146 162 -256 175 -351 14 -101 -34 -204 -124 -265 -55 -38 -85 -48 -197 -63
-103 -14 -330 9 -457 46 -44 13 -96 26 -115 30 -34 7 -166 48 -260 81 -25 9
-76 27 -114 40 -37 13 -73 27 -80 33 -6 5 -31 14 -56 21 -25 6 -57 20 -71 30
-46 33 -83 30 -97 -7 -6 -16 -16 -66 -22 -113 -19 -140 -97 -455 -147 -585
-50 -131 -64 -165 -90 -215 -147 -280 -324 -384 -513 -302 -90 39 -213 182
-276 322 -9 19 -24 53 -35 75 -41 88 -143 420 -155 505 -3 25 -13 72 -21 105
-8 33 -20 96 -27 139 -14 101 -25 109 -98 74 -29 -15 -64 -30 -78 -33 -14 -4
-30 -12 -36 -17 -12 -8 -79 -33 -214 -78 -36 -12 -87 -30 -115 -40 -108 -40
-237 -72 -400 -101 -273 -49 -430 -31 -538 62 -199 170 -84 473 338 894 131
130 377 348 468 413 26 18 47 42 47 51 0 10 -54 61 -132 123 -286 227 -582
526 -700 708 -63 96 -98 173 -113 248 -34 164 29 278 190 343 54 22 75 24 205
24 158 0 264 -17 475 -77 161 -45 488 -157 527 -181 13 -8 49 -22 81 -33 57
-18 59 -18 72 0 8 10 17 44 20 75 4 31 13 81 21 113 8 31 21 94 30 140 30 165
121 444 188 578 85 170 167 266 277 323 43 22 66 27 124 27 43 0 81 -6 98 -15z"/>
<path d="M4542 7713 c-42 -20 -108 -88 -128 -133 -9 -19 -22 -42 -29 -50 -17
-19 -68 -149 -110 -275 -43 -132 -71 -248 -105 -430 -15 -82 -33 -169 -40
-193 -12 -39 -12 -45 7 -70 20 -28 32 -35 168 -101 44 -21 122 -60 174 -87
l94 -48 31 18 c17 10 111 59 209 109 139 70 182 97 193 119 8 16 13 32 10 36
-3 5 -10 48 -16 98 -6 49 -20 121 -30 159 -10 39 -26 110 -35 159 -9 50 -21
98 -26 108 -5 10 -18 50 -28 90 -30 115 -104 287 -165 382 -27 42 -117 126
-135 126 -3 0 -21 -8 -39 -17z"/>
<path d="M6289 6766 c-2 -2 -62 -14 -134 -25 -71 -12 -155 -31 -185 -41 -30
-11 -80 -26 -110 -34 -30 -8 -100 -31 -155 -51 -55 -21 -131 -48 -170 -61 -38
-14 -79 -31 -90 -38 -11 -7 -38 -19 -60 -26 -66 -21 -122 -59 -129 -86 -4 -14
-4 -28 -2 -33 7 -11 35 -282 39 -372 2 -50 9 -86 20 -102 9 -14 54 -50 99 -81
46 -30 112 -76 148 -100 36 -25 72 -46 81 -46 42 0 471 372 650 565 84 92 147
173 221 290 36 56 61 147 48 179 -16 44 -77 66 -178 66 -49 0 -91 -2 -93 -4z"/>
<path d="M2645 6744 c-57 -18 -75 -36 -75 -77 0 -36 52 -157 94 -217 107 -155
373 -424 617 -625 13 -11 59 -46 101 -78 42 -31 80 -62 83 -67 18 -28 68 -7
192 79 71 49 143 102 162 119 l35 29 12 232 c7 127 16 236 19 242 12 19 -23
54 -81 81 -103 48 -202 88 -214 88 -7 0 -38 11 -69 24 -172 74 -434 144 -636
170 -144 19 -175 19 -240 0z"/>
<path d="M4913 6272 c-61 -31 -93 -53 -93 -64 0 -17 44 -58 63 -58 5 0 40 -20
77 -45 70 -46 95 -54 103 -32 7 20 -5 211 -15 230 -13 25 -33 21 -135 -31z"/>
<path d="M4103 6298 c-6 -7 -13 -47 -17 -88 -4 -41 -9 -90 -12 -108 -4 -23 -1
-34 11 -38 20 -8 71 14 109 47 17 14 42 30 56 34 71 21 94 71 45 93 -14 7 -32
12 -39 12 -7 0 -32 14 -54 30 -44 32 -83 38 -99 18z"/>
<path d="M4545 6073 c-11 -3 -33 -16 -50 -28 -16 -12 -48 -32 -70 -44 -22 -12
-65 -37 -95 -56 -30 -19 -65 -39 -77 -44 -12 -6 -41 -24 -64 -41 -23 -16 -47
-30 -54 -30 -15 0 -73 -61 -75 -80 -1 -8 -2 -119 -1 -246 l1 -231 59 -39 c33
-22 83 -52 111 -69 28 -16 70 -42 93 -56 83 -51 183 -108 218 -124 39 -19 29
-23 232 97 34 20 81 46 105 58 23 12 42 25 42 29 0 4 12 13 28 20 43 20 121
74 128 91 4 8 8 116 9 240 3 259 0 271 -84 316 -25 14 -71 40 -101 59 -63 39
-123 73 -198 115 -30 16 -61 35 -70 44 -20 17 -59 26 -87 19z m211 -204 c89
-46 177 -134 205 -208 97 -250 -106 -521 -392 -521 -152 0 -283 80 -374 226
-29 47 -30 54 -30 159 0 109 0 111 35 165 54 85 109 139 175 172 88 45 100 48
212 44 93 -2 107 -6 169 -37z"/>
<path d="M5312 5603 c-8 -14 -10 -119 -3 -155 2 -17 45 -7 65 15 12 12 32 29
46 39 31 20 23 38 -39 86 -49 37 -57 39 -69 15z"/>
<path d="M3758 5580 c-74 -49 -73 -65 9 -119 67 -45 82 -33 78 61 -2 40 -4 76
-4 81 -2 16 -40 5 -83 -23z"/>
<path d="M5584 5357 c-17 -12 -56 -39 -85 -59 -30 -20 -85 -59 -124 -85 l-70
-48 -17 -175 c-32 -337 -33 -353 -12 -371 11 -8 39 -23 64 -33 25 -10 79 -32
120 -48 345 -138 628 -219 830 -238 172 -16 248 -3 275 50 15 29 15 35 -5 96
-21 63 -55 122 -121 212 -107 145 -400 433 -580 570 -30 23 -85 66 -124 96
-78 61 -103 67 -151 33z"/>
<path d="M3427 5333 c-275 -216 -555 -482 -697 -663 -84 -107 -150 -239 -150
-302 0 -33 5 -41 33 -58 28 -17 49 -20 162 -19 164 0 308 28 549 105 243 78
536 201 552 232 6 13 7 46 3 89 -4 37 -10 136 -14 218 -9 214 -7 209 -68 253
-49 37 -179 127 -236 164 -42 28 -80 23 -134 -19z"/>
<path d="M4081 4986 c-12 -14 3 -189 20 -233 9 -24 52 -32 64 -13 4 6 39 27
78 47 40 19 75 41 79 47 14 21 8 37 -19 47 -16 5 -44 20 -63 33 -91 59 -134
86 -140 86 -4 0 -13 -6 -19 -14z"/>
<path d="M5024 4990 c-12 -5 -25 -13 -28 -19 -4 -6 -45 -31 -91 -57 -47 -25
-85 -51 -85 -58 0 -20 29 -40 124 -86 110 -54 111 -53 119 97 6 117 -1 138
-39 123z"/>
<path d="M4515 4693 c-53 -28 -159 -85 -183 -97 -222 -108 -220 -106 -196
-199 8 -31 26 -122 39 -202 14 -81 29 -154 34 -163 5 -9 14 -44 21 -77 18 -92
83 -280 133 -385 54 -116 110 -192 161 -221 33 -19 43 -20 76 -10 50 15 106
79 161 184 69 132 143 354 179 532 11 55 27 123 35 150 7 28 17 75 20 105 3
30 11 78 16 107 7 36 7 58 0 72 -6 10 -81 54 -168 97 -87 43 -173 89 -192 101
-40 27 -94 30 -136 6z"/>
<path d="M734 7829 c-30 -29 -54 -57 -54 -63 0 -7 21 -45 46 -86 25 -41 49
-82 53 -90 3 -9 14 -27 24 -40 118 -161 113 -216 -13 -122 -35 26 -100 73
-144 105 -45 31 -91 64 -103 73 -14 10 -32 14 -45 10 -31 -8 -118 -90 -118
-110 0 -9 62 -83 138 -163 75 -81 166 -180 202 -219 36 -40 75 -75 87 -79 29
-9 61 10 69 41 6 21 -7 39 -93 127 -111 115 -173 189 -173 206 0 6 2 11 4 11
13 0 95 -54 215 -142 73 -54 140 -98 150 -98 23 0 78 35 90 59 16 29 10 39
-120 240 -48 73 -76 137 -66 148 12 11 70 -42 172 -157 116 -130 137 -142 174
-94 25 32 20 45 -48 113 -31 31 -105 110 -166 176 -163 178 -191 205 -209 205
-10 0 -42 -23 -72 -51z"/>
<path d="M8381 7616 c-69 -68 -170 -166 -225 -218 -108 -104 -115 -123 -54
-154 l31 -16 59 59 c33 32 90 86 126 121 37 34 76 71 88 82 25 24 44 26 44 5
0 -17 -59 -110 -116 -183 -45 -58 -114 -165 -114 -177 0 -7 25 -36 55 -64 40
-38 62 -51 79 -49 19 2 185 155 442 406 28 27 10 74 -34 87 -20 6 -41 -11
-150 -117 -112 -109 -169 -158 -186 -158 -15 0 39 89 126 211 54 76 98 146 98
158 0 25 -103 131 -127 131 -9 0 -72 -56 -142 -124z"/>
<path d="M8645 4420 c-24 -46 -19 -63 46 -140 33 -40 59 -79 57 -89 -5 -24
-58 -18 -129 14 -69 31 -108 28 -139 -12 -37 -48 -17 -102 34 -89 15 4 45 -2
74 -13 27 -11 83 -27 125 -35 102 -21 177 -50 222 -86 59 -47 65 -42 65 50 0
77 -1 80 -26 86 -22 6 -51 40 -90 106 -6 10 -20 29 -31 41 -17 20 -32 41 -102
146 -29 43 -39 51 -68 51 -15 0 -28 -10 -38 -30z"/>
<path d="M447 4380 c-19 -16 -39 -30 -44 -30 -6 0 -23 -10 -39 -22 -15 -13
-42 -32 -60 -43 -112 -68 -216 -137 -234 -155 -11 -11 -31 -20 -45 -20 -24 0
-25 -3 -25 -60 l0 -60 48 0 c37 0 57 6 83 26 19 14 86 59 149 100 63 41 123
81 132 89 9 8 30 21 46 29 16 8 35 22 42 31 7 9 28 22 47 30 27 12 33 19 33
44 0 70 -74 93 -133 41z"/>
<path d="M553 4222 c-29 -26 -94 -81 -144 -122 -294 -239 -304 -251 -257 -284
40 -28 64 -19 150 57 119 105 208 177 218 177 5 0 11 -4 14 -9 6 -10 -96 -150
-176 -242 -73 -84 -82 -103 -67 -131 17 -33 96 -108 112 -108 13 0 51 26 88
60 9 8 102 87 208 175 197 165 211 183 175 219 -32 32 -59 19 -176 -84 -107
-95 -194 -157 -204 -147 -8 8 38 80 95 148 112 134 151 187 151 207 0 25 -96
132 -119 132 -9 0 -40 -22 -68 -48z"/>
<path d="M8390 4067 c-20 -6 -60 -36 -92 -69 -66 -66 -84 -112 -67 -171 17
-63 188 -249 304 -332 41 -29 59 -35 100 -35 62 0 99 22 178 104 76 79 92 108
75 139 -21 35 -195 197 -213 197 -23 0 -125 -90 -125 -111 0 -31 29 -49 78
-49 41 0 50 -4 84 -41 43 -46 42 -43 26 -72 -35 -66 -87 -64 -170 7 -104 87
-228 225 -228 252 0 53 57 77 125 53 61 -23 114 13 101 67 -4 16 -23 32 -56
49 -54 27 -67 29 -120 12z"/>
<path d="M895 3851 c-16 -10 -47 -37 -68 -59 -53 -55 -56 -91 -18 -216 38
-122 38 -140 2 -177 -37 -37 -78 -38 -115 -4 -30 27 -32 43 -11 71 24 32 19
80 -11 103 -37 29 -59 26 -88 -12 -41 -54 -50 -89 -32 -130 34 -81 156 -177
226 -177 41 1 103 34 143 78 34 39 37 46 37 105 0 39 -10 94 -27 150 l-27 89
19 35 c11 20 30 40 42 46 30 13 77 -7 92 -40 10 -23 9 -31 -8 -54 -28 -38 -26
-60 7 -92 35 -34 65 -34 86 -2 9 14 27 32 40 40 24 16 26 15 75 -32 28 -27 51
-56 51 -65 0 -9 -15 -34 -32 -56 -37 -44 -174 -230 -204 -277 -10 -16 -29 -39
-41 -52 -36 -35 -30 -64 17 -96 43 -30 64 -22 111 44 236 329 261 359 294 359
12 0 30 -9 40 -20 14 -15 29 -20 54 -18 32 3 36 6 39 35 3 30 -2 35 -100 99
-57 38 -122 83 -146 101 -47 36 -82 42 -102 18 -22 -26 -37 -16 -50 32 -33
132 -202 232 -295 174z"/>
<path d="M8030 3755 c-56 -18 -146 -104 -160 -153 -20 -74 12 -132 194 -346
76 -90 125 -125 173 -126 50 0 133 43 183 94 44 45 45 49 45 110 0 58 -3 68
-40 118 -225 310 -266 342 -395 303z m120 -162 c28 -32 70 -84 93 -116 23 -33
57 -77 75 -99 17 -22 32 -51 32 -64 0 -35 -34 -64 -74 -64 -42 0 -68 28 -256
274 -17 21 -30 49 -30 62 0 33 37 64 76 64 27 0 41 -10 84 -57z"/>
<path d="M7557 3469 c-16 -4 -35 -13 -43 -20 -21 -17 -17 -62 9 -94 12 -16 85
-123 162 -239 116 -175 144 -212 166 -214 17 -2 57 16 122 55 101 61 129 92
111 121 -19 29 -60 26 -108 -8 -24 -18 -52 -30 -62 -28 -19 3 -26 13 -142 181
-78 114 -108 159 -140 209 -27 42 -37 48 -75 37z"/>
<path d="M1650 3323 c-24 -38 -53 -84 -65 -103 -12 -19 -37 -60 -57 -90 -19
-30 -53 -84 -74 -120 -21 -36 -49 -78 -61 -93 -13 -16 -23 -37 -23 -48 0 -30
44 -69 79 -69 28 0 42 15 106 121 59 96 82 133 115 184 22 33 47 77 56 97 10
22 28 41 44 48 24 10 33 8 76 -22 27 -18 52 -37 56 -43 15 -20 7 -62 -17 -95
-13 -18 -30 -49 -36 -69 -7 -20 -19 -47 -29 -61 -9 -14 -37 -68 -63 -120 -26
-52 -53 -103 -60 -113 -16 -23 8 -67 47 -86 25 -12 31 -11 55 6 14 11 33 38
41 60 8 22 22 50 31 64 8 13 21 40 29 59 7 19 22 47 32 62 10 15 24 42 30 60
6 18 20 45 30 60 10 15 23 41 29 57 14 40 38 46 99 24 38 -13 54 -15 68 -7 22
14 27 41 10 61 -19 23 -317 163 -347 163 -18 0 -40 13 -66 40 -59 61 -83 56
-135 -27z"/>
<path d="M7231 3308 c-80 -41 -121 -94 -121 -156 0 -74 176 -396 244 -446 45
-34 127 -29 198 12 62 36 114 89 124 126 8 35 -12 99 -63 195 -79 151 -135
241 -170 271 -29 26 -42 30 -92 30 -46 0 -71 -7 -120 -32z m106 -84 c13 -4 36
-29 55 -61 53 -89 96 -165 113 -203 9 -19 23 -49 32 -67 15 -27 15 -36 4 -57
-8 -13 -27 -30 -42 -37 -24 -9 -33 -9 -54 5 -27 18 -72 84 -119 171 -14 28
-30 57 -36 65 -22 35 -50 106 -50 127 0 27 33 63 58 63 9 0 27 -3 39 -6z"/>
<path d="M6930 3150 c-24 -24 -25 -32 -5 -69 25 -49 102 -245 109 -278 4 -17
3 -34 -2 -37 -16 -9 -52 38 -175 224 -54 83 -66 95 -93 98 -19 2 -48 -6 -70
-17 -21 -12 -44 -21 -52 -21 -7 0 -17 -11 -23 -23 -9 -20 -5 -39 24 -108 20
-46 63 -156 97 -244 86 -224 89 -229 126 -233 20 -2 36 4 49 18 21 23 18 39
-35 155 -71 157 -92 226 -72 239 11 7 84 -91 166 -222 32 -51 70 -100 83 -109
23 -15 28 -14 94 17 38 19 71 41 74 51 5 14 -16 80 -45 144 -5 11 -32 76 -60
145 -28 69 -60 145 -70 170 -11 25 -26 62 -34 83 -12 29 -20 37 -40 37 -15 0
-35 -9 -46 -20z"/>
<path d="M2265 3095 c-15 -19 -39 -67 -55 -107 -15 -40 -43 -109 -60 -153 -64
-160 -72 -188 -66 -240 4 -44 11 -55 53 -92 26 -24 63 -48 83 -55 48 -16 128
-16 167 0 34 15 98 101 109 149 4 15 16 46 26 67 11 22 28 62 38 90 10 28 32
89 50 135 l32 83 -19 27 c-35 46 -93 41 -113 -11 -6 -18 -22 -58 -35 -88 -13
-30 -29 -73 -36 -95 -7 -22 -18 -49 -26 -61 -7 -11 -20 -43 -28 -70 -18 -62
-63 -131 -89 -138 -28 -7 -67 14 -85 45 -14 25 -13 32 17 96 18 38 32 75 32
81 0 7 14 41 30 75 17 35 30 71 30 79 0 8 14 42 31 76 39 74 35 106 -16 128
-44 18 -40 19 -70 -21z"/>
<path d="M6450 2993 c-42 -16 -65 -64 -41 -88 11 -12 44 -133 43 -160 -1 -26
-37 -55 -69 -55 -43 0 -60 17 -73 72 -7 29 -21 77 -32 105 -22 60 -48 74 -94
51 -47 -23 -51 -40 -25 -110 13 -35 32 -97 41 -138 10 -41 29 -109 43 -150 14
-41 35 -108 47 -147 24 -84 44 -102 91 -82 55 22 62 66 25 151 -48 108 -43
141 24 166 46 18 66 0 93 -85 14 -43 28 -90 31 -105 13 -60 65 -75 113 -34 27
24 27 25 15 72 -22 86 -73 257 -102 344 -15 47 -31 102 -34 123 -11 60 -48 87
-96 70z"/>
<path d="M2690 2960 c-11 -7 -12 -15 -5 -37 10 -26 27 -38 89 -62 25 -10 28
-15 23 -49 -2 -20 -14 -64 -25 -97 -71 -205 -104 -317 -106 -355 -1 -30 4 -37
35 -54 34 -19 38 -19 61 -4 17 11 30 35 41 75 29 108 79 268 87 278 4 6 13 35
20 65 19 81 22 83 106 76 79 -7 102 4 89 44 -8 26 -50 45 -165 76 -47 12 -102
29 -122 38 -41 18 -105 21 -128 6z"/>
<path d="M3155 2840 c-10 -11 -21 -39 -26 -63 -19 -112 -50 -259 -95 -445 -13
-57 -13 -66 0 -88 10 -14 30 -25 53 -29 36 -6 163 -31 210 -42 21 -5 63 26 63
47 0 22 -39 47 -84 53 -25 4 -60 14 -76 22 -39 20 -40 61 -4 133 29 58 44 63
109 36 43 -18 80 -12 94 15 24 44 -8 73 -93 85 -58 8 -80 34 -71 85 14 83 56
106 146 80 32 -10 42 -9 64 5 33 22 32 52 -2 70 -29 15 -212 56 -248 56 -12 0
-30 -9 -40 -20z"/>
<path d="M5840 2851 c-46 -14 -111 -61 -120 -87 -38 -98 47 -473 122 -541 25
-22 144 -30 206 -14 84 23 141 101 129 178 -8 47 -23 63 -61 63 -52 0 -76 -24
-76 -76 0 -31 -6 -50 -20 -64 -27 -27 -44 -25 -79 8 -25 22 -35 49 -64 162
-46 179 -51 207 -37 240 22 52 97 46 120 -9 16 -39 51 -49 96 -28 53 26 41 83
-31 146 -32 28 -42 31 -98 30 -34 0 -73 -4 -87 -8z"/>
<path d="M5430 2778 c-116 -21 -156 -42 -153 -79 3 -48 35 -247 59 -373 13
-70 24 -138 24 -150 0 -12 7 -32 16 -45 13 -18 23 -22 48 -18 17 3 80 12 141
21 119 17 141 29 131 70 -8 34 -44 42 -112 26 -80 -19 -99 -8 -112 70 -14 80
-5 106 45 119 21 6 48 11 61 11 36 0 62 18 62 44 0 40 -22 49 -102 41 -86 -8
-98 0 -117 77 -9 37 -9 52 1 68 7 11 15 20 18 20 40 2 135 21 146 31 21 17 18
66 -5 79 -23 12 -19 12 -151 -12z"/>
<path d="M3813 2734 c-35 -18 -60 -50 -74 -98 -18 -59 -39 -250 -39 -348 0
-94 1 -98 30 -132 45 -51 93 -70 180 -70 46 0 85 6 101 15 45 24 79 74 89 131
13 73 40 316 40 356 0 62 -57 134 -121 152 -53 15 -169 12 -206 -6z m160 -89
c10 -7 22 -28 26 -47 10 -45 -17 -325 -35 -364 -29 -60 -94 -64 -130 -8 -17
25 -17 34 5 198 13 94 27 181 32 194 15 37 70 52 102 27z"/>
<path d="M4961 2730 c-135 -14 -167 -20 -178 -36 -16 -22 -16 -29 -3 -55 9
-15 22 -19 70 -19 37 0 64 -5 72 -14 10 -9 19 -63 27 -157 23 -260 36 -341 56
-355 50 -37 122 2 111 59 -3 18 -10 75 -16 127 -11 97 -23 195 -36 286 -6 46
-4 53 17 68 13 9 35 16 49 16 31 0 44 8 60 39 11 22 10 27 -10 43 -12 10 -30
17 -39 17 -9 -1 -90 -9 -180 -19z"/>
<path d="M4256 2707 c-17 -13 -19 -33 -22 -248 -2 -129 -6 -260 -9 -291 -5
-52 -4 -60 19 -83 31 -31 66 -32 92 -4 16 18 19 38 20 127 1 124 7 132 94 132
45 0 61 4 76 21 17 19 17 23 3 47 -13 24 -22 27 -74 30 -80 4 -95 19 -95 93 0
72 19 89 100 89 86 0 124 36 80 75 -17 15 -42 19 -143 22 -92 3 -127 0 -141
-10z"/>
<path d="M0 1820 l0 -50 4500 0 4500 0 0 50 0 50 -4500 0 -4500 0 0 -50z"/>
<path d="M267 1467 c-16 -11 -18 -47 -18 -461 0 -408 2 -450 17 -467 15 -17
33 -19 183 -19 127 1 170 4 185 15 17 13 18 32 17 307 -2 236 1 297 12 312 8
11 19 16 26 12 14 -9 53 -94 82 -175 11 -30 25 -64 33 -75 7 -12 19 -39 26
-61 7 -22 23 -60 36 -85 13 -25 40 -83 59 -130 51 -122 48 -120 227 -120 162
0 200 10 213 52 4 13 18 46 30 73 13 28 39 88 59 135 20 47 45 103 56 125 11
22 26 58 34 80 21 60 77 174 88 181 29 18 33 -20 33 -317 0 -286 1 -301 19
-315 15 -11 58 -14 182 -14 140 0 165 2 184 18 l22 17 -1 450 c-1 408 -3 451
-18 463 -27 19 -601 17 -630 -3 -11 -8 -32 -44 -47 -80 -14 -35 -35 -82 -46
-102 -11 -21 -20 -42 -20 -48 0 -5 -11 -32 -24 -60 -14 -27 -39 -84 -56 -125
-42 -102 -44 -105 -70 -105 -26 0 -28 3 -70 105 -17 41 -39 93 -50 115 -20 43
-79 179 -100 232 -7 18 -24 44 -37 58 l-26 25 -296 0 c-224 0 -301 -3 -314
-13z"/>
<path d="M3675 1419 c-25 -34 -45 -65 -45 -69 0 -4 -8 -16 -17 -28 -10 -11
-36 -50 -58 -87 -40 -65 -125 -200 -193 -305 -19 -30 -45 -71 -57 -90 -37 -59
-97 -152 -137 -212 -43 -63 -47 -83 -19 -98 26 -13 384 -13 434 1 31 8 42 18
56 53 10 23 33 54 51 69 l32 27 248 0 c137 0 260 -4 273 -9 14 -5 37 -33 55
-63 49 -88 49 -88 291 -88 115 0 216 3 225 6 27 10 19 59 -16 103 -18 22 -46
62 -62 88 -42 70 -98 159 -198 313 -30 47 -89 139 -130 205 -127 202 -142 223
-166 234 -14 7 -118 11 -272 11 l-250 0 -45 -61z m322 -237 c6 -4 34 -50 61
-102 27 -52 58 -109 68 -127 18 -30 18 -33 2 -49 -13 -14 -40 -17 -149 -18
-116 -2 -135 0 -151 16 -23 23 -23 31 5 65 13 15 44 72 71 126 46 95 61 109
93 89z"/>
<path d="M5936 1464 c-14 -13 -16 -67 -16 -432 0 -229 -3 -427 -6 -439 -4 -15
2 -30 20 -48 l26 -26 214 3 c162 2 217 6 229 17 15 12 17 57 17 462 l0 448
-22 15 c-33 24 -439 24 -462 0z"/>
<path d="M7556 1464 c-22 -22 -23 -186 -1 -204 10 -9 73 -12 231 -11 181 2
220 -1 240 -14 l24 -15 0 -334 c0 -310 1 -334 18 -349 16 -15 47 -17 224 -17
191 0 207 1 231 20 l26 21 -1 325 c0 291 1 328 16 342 19 19 45 21 284 22
l152 0 0 115 0 115 -714 0 c-636 0 -716 -2 -730 -16z"/>
<path d="M0 180 l0 -50 4500 0 4500 0 0 50 0 50 -4500 0 -4500 0 0 -50z"/>
</g>
</svg>
